<svg data-logo="logo" xmlns="http://www.w3.org/2000/svg" viewBox="0 0 224 40">
                <g style="opacity: 1;" id="logogram" transform="translate(0, 0)"><path d="M40.0277 20C40.0277 31.0457 31.0734 40 20.0277 40C8.98208 40 0.02771 31.0457 0.02771 20C0.02771 8.95431 8.98208 0 20.0277 0C31.0734 0 40.0277 8.95431 40.0277 20Z" fill="#68DBFF"></path><path d="M63.0277 20C63.0277 31.0457 54.0733 40 43.0277 40C31.9821 40 23.0277 31.0457 23.0277 20C23.0277 8.95431 31.9821 0 43.0277 0C54.0733 0 63.0277 8.95431 63.0277 20Z" fill="#FF7917"></path><path fill-rule="evenodd" clip-rule="evenodd" d="M31.5277 36.3651C36.6688 32.7457 40.0277 26.7651 40.0277 20C40.0277 13.2349 36.6688 7.25426 31.5277 3.63489C26.3866 7.25426 23.0277 13.2349 23.0277 20C23.0277 26.7651 26.3866 32.7457 31.5277 36.3651Z" fill="#5D2C02"></path></g>
                <g style="opacity: 1;" id="logotype" transform="translate(70, 2.5)"><path fill="#ff8040" d="M16.82 35.42L16.82 35.42Q15.10 35.42 13.42 34.95Q11.74 34.48 10.34 33.44Q8.94 32.41 8.01 30.78Q7.08 29.16 6.91 26.88L6.91 26.88L11.11 26.88Q11.39 28.66 12.28 29.68Q13.18 30.70 14.42 31.10Q15.66 31.50 16.89 31.50L16.89 31.50Q18.25 31.50 19.32 31.08Q20.39 30.66 21.00 29.87Q21.61 29.09 21.61 28.04L21.61 28.04Q21.61 26.95 21.02 26.09Q20.42 25.23 18.46 24.88L18.46 24.88L14.29 24.11Q11.29 23.55 9.59 21.72Q7.89 19.88 7.89 17.36L7.89 17.36Q7.89 15.05 9.04 13.44Q10.20 11.83 12.16 10.95Q14.12 10.08 16.47 10.08L16.47 10.08Q18.91 10.08 20.88 10.92Q22.84 11.76 24.06 13.49Q25.29 15.22 25.53 17.95L25.53 17.95L21.26 17.95Q21.05 16.38 20.33 15.52Q19.62 14.66 18.62 14.31Q17.62 13.96 16.57 13.96L16.57 13.96Q15.59 13.96 14.54 14.28Q13.49 14.59 12.79 15.31Q12.09 16.03 12.09 17.25L12.09 17.25Q12.09 18.30 12.88 19.13Q13.67 19.95 15.42 20.27L15.42 20.27L19.27 20.96Q22.35 21.52 24.11 23.15Q25.88 24.78 25.88 27.89L25.88 27.89Q25.88 29.75 25.09 31.13Q24.31 32.52 23.01 33.48Q21.72 34.44 20.11 34.93Q18.50 35.42 16.82 35.42ZM36.56 35.42L36.56 35.42Q33.90 35.42 31.85 34.25Q29.80 33.08 28.63 31.03Q27.46 28.98 27.46 26.32L27.46 26.32Q27.46 23.66 28.63 21.61Q29.80 19.56 31.85 18.39Q33.90 17.22 36.56 17.22L36.56 17.22Q39.88 17.22 42.16 18.95Q44.43 20.68 45.06 23.73L45.06 23.73L40.27 23.73Q39.95 22.54 38.94 21.82Q37.92 21.10 36.52 21.10L36.52 21.10Q35.33 21.10 34.32 21.73Q33.30 22.36 32.71 23.52Q32.11 24.67 32.11 26.32L32.11 26.32Q32.11 27.93 32.71 29.12Q33.30 30.31 34.32 30.92Q35.33 31.54 36.52 31.54L36.52 31.54Q37.92 31.54 38.94 30.85Q39.95 30.17 40.27 28.91L40.27 28.91L45.06 28.91Q44.47 31.85 42.17 33.63Q39.88 35.42 36.56 35.42ZM51.85 35L47.30 35L47.30 9.80L51.85 9.80L51.85 20.27Q52.69 18.86 54.21 18.04Q55.74 17.22 57.63 17.22L57.63 17.22Q60.85 17.22 62.61 19.27Q64.38 21.31 64.38 25.23L64.38 25.23L64.38 35L59.87 35L59.87 25.66Q59.87 23.41 58.97 22.24Q58.08 21.07 56.19 21.07L56.19 21.07Q54.30 21.07 53.08 22.38Q51.85 23.70 51.85 26.04L51.85 26.04L51.85 35ZM75.90 35.42L75.90 35.42Q73.27 35.42 71.17 34.27Q69.07 33.11 67.85 31.04Q66.62 28.98 66.62 26.32L66.62 26.32Q66.62 23.63 67.85 21.58Q69.07 19.53 71.19 18.38Q73.31 17.22 75.90 17.22L75.90 17.22Q78.52 17.22 80.62 18.38Q82.72 19.53 83.95 21.58Q85.17 23.63 85.17 26.32L85.17 26.32Q85.17 28.98 83.95 31.04Q82.72 33.11 80.62 34.27Q78.52 35.42 75.90 35.42ZM75.90 31.50L75.90 31.50Q77.16 31.50 78.21 30.92Q79.26 30.34 79.87 29.19Q80.48 28.04 80.48 26.32L80.48 26.32Q80.48 24.60 79.85 23.45Q79.22 22.29 78.19 21.72Q77.16 21.14 75.93 21.14L75.93 21.14Q74.67 21.14 73.62 21.73Q72.57 22.33 71.94 23.47Q71.31 24.60 71.31 26.32L71.31 26.32Q71.31 28.04 71.92 29.19Q72.54 30.34 73.59 30.92Q74.64 31.50 75.90 31.50ZM91.96 35L87.41 35L87.41 9.80L91.96 9.80L91.96 35ZM103.48 35.42L103.48 35.42Q100.85 35.42 98.75 34.27Q96.65 33.11 95.43 31.04Q94.20 28.98 94.20 26.32L94.20 26.32Q94.20 23.63 95.43 21.58Q96.65 19.53 98.77 18.38Q100.89 17.22 103.48 17.22L103.48 17.22Q106.10 17.22 108.20 18.38Q110.30 19.53 111.53 21.58Q112.75 23.63 112.75 26.32L112.75 26.32Q112.75 28.98 111.53 31.04Q110.30 33.11 108.20 34.27Q106.10 35.42 103.48 35.42ZM103.48 31.50L103.48 31.50Q104.74 31.50 105.79 30.92Q106.84 30.34 107.45 29.19Q108.06 28.04 108.06 26.32L108.06 26.32Q108.06 24.60 107.43 23.45Q106.80 22.29 105.77 21.72Q104.74 21.14 103.51 21.14L103.51 21.14Q102.25 21.14 101.20 21.73Q100.15 22.33 99.52 23.47Q98.89 24.60 98.89 26.32L98.89 26.32Q98.89 28.04 99.50 29.19Q100.12 30.34 101.17 30.92Q102.22 31.50 103.48 31.50ZM119.54 35L114.99 35L114.99 17.64L119.54 17.64L119.54 20.30Q120.21 18.97 121.26 18.22Q122.31 17.46 123.67 17.46L123.67 17.46L125.88 17.46L125.88 21.52L123.22 21.52Q121.96 21.52 121.13 22.19Q120.31 22.85 119.93 24.18Q119.54 25.52 119.54 27.48L119.54 27.48L119.54 35ZM132.88 35L128.33 35L128.33 17.64L132.88 17.64L132.88 35ZM132.84 14.77L128.43 14.77L128.43 10.36L132.84 10.36L132.84 14.77ZM141.70 35.42L141.70 35.42Q139.74 35.42 138.32 34.72Q136.90 34.02 136.17 32.83Q135.43 31.64 135.43 30.20L135.43 30.20Q135.43 27.48 137.39 25.99Q139.35 24.50 142.54 24.50L142.54 24.50Q144.04 24.50 145.13 24.71Q146.21 24.92 146.91 25.16L146.91 25.16L146.91 24.32Q146.91 22.50 145.88 21.66Q144.85 20.82 143.20 20.82L143.20 20.82Q142.05 20.82 141.14 21.30Q140.23 21.77 139.98 22.96L139.98 22.96L135.68 22.96Q135.89 21.10 136.94 19.83Q137.99 18.55 139.61 17.88Q141.24 17.22 143.20 17.22L143.20 17.22Q147.09 17.22 149.27 19.07Q151.46 20.93 151.46 24.32L151.46 24.32L151.46 28.24Q151.46 29.57 151.62 30.20Q151.78 30.84 152.13 31.01Q152.48 31.18 153.07 31.18L153.07 31.18L153.21 31.18L153.21 35L152.23 35Q150.38 35 149.15 34.51Q147.93 34.02 147.37 32.59L147.37 32.59Q146.49 33.81 145.06 34.62Q143.62 35.42 141.70 35.42ZM142.71 31.95L142.71 31.95Q143.83 31.95 144.62 31.45Q145.41 30.94 145.93 30.05Q146.46 29.16 146.67 28.11L146.67 28.11Q145.93 27.89 144.97 27.70Q144.01 27.51 143.03 27.51L143.03 27.51Q141.66 27.51 140.84 28.12Q140.02 28.73 140.02 29.82L140.02 29.82Q140.02 30.77 140.73 31.36Q141.45 31.95 142.71 31.95Z"></path></g>
                
            </svg>